<?xml version="1.0" encoding="UTF-8" standalone="no"?>
<!-- Generator: Adobe Illustrator 25.4.1, SVG Export Plug-In . SVG Version: 6.00 Build 0)  -->

<svg
   version="1.1"
   id="Ebene_1"
   x="0px"
   y="0px"
   viewBox="0 0 607.29653 77.601843"
   xml:space="preserve"
   width="454.2171pt"
   height="58.471249pt"
   sodipodi:docname="qoj.svg"
   inkscape:version="1.4.2 (ebf0e940d0, 2025-05-08)"
   inkscape:export-filename="qoj.pdf"
   inkscape:export-xdpi="96"
   inkscape:export-ydpi="96"
   xmlns:inkscape="http://www.inkscape.org/namespaces/inkscape"
   xmlns:sodipodi="http://sodipodi.sourceforge.net/DTD/sodipodi-0.dtd"
   xmlns="http://www.w3.org/2000/svg"
   xmlns:svg="http://www.w3.org/2000/svg"><defs
   id="defs19" /><sodipodi:namedview
   id="namedview19"
   pagecolor="#505050"
   bordercolor="#eeeeee"
   borderopacity="1"
   inkscape:showpageshadow="0"
   inkscape:pageopacity="0"
   inkscape:pagecheckerboard="0"
   inkscape:deskcolor="#d1d1d1"
   inkscape:zoom="1.7832882"
   inkscape:cx="302.8114"
   inkscape:cy="45.982472"
   inkscape:window-width="1735"
   inkscape:window-height="1129"
   inkscape:window-x="0"
   inkscape:window-y="0"
   inkscape:window-maximized="0"
   inkscape:current-layer="g19"
   inkscape:document-units="pt"
   showguides="true"><sodipodi:guide
     position="105.64014,77.887463"
     orientation="0,-1"
     id="guide1"
     inkscape:locked="false" /><sodipodi:guide
     position="90.772375,71.271402"
     orientation="0,-1"
     id="guide2"
     inkscape:locked="false" /><sodipodi:guide
     position="70.858754,6.9903896"
     orientation="0,-1"
     id="guide3"
     inkscape:locked="false" /><sodipodi:guide
     position="607.29655,77.135942"
     orientation="1,0"
     id="guide5"
     inkscape:locked="false" /><sodipodi:guide
     position="-2.1344135e-16,0.37432728"
     orientation="1,0"
     id="guide8"
     inkscape:locked="false" /><sodipodi:guide
     position="0,38.939588"
     orientation="0,-1"
     id="guide9"
     inkscape:locked="false" /><sodipodi:guide
     position="16.410455,65.226626"
     orientation="0,-1"
     id="guide10"
     inkscape:locked="false" /><sodipodi:guide
     position="16.410455,12.942932"
     orientation="0,-1"
     id="guide11"
     inkscape:locked="false" /><sodipodi:guide
     position="12.751143,65.230151"
     orientation="1,0"
     id="guide12"
     inkscape:locked="false" /><sodipodi:guide
     position="-4.7683716e-07,0.28562062"
     orientation="0,-1"
     id="guide13"
     inkscape:locked="false" /></sodipodi:namedview>
<style
   type="text/css"
   id="style1">
	.st0{fill:#2FDAC3;}
	.st1{fill:#FFFFFF;}
</style>
<g
   id="g19"
   transform="translate(5.6849594,5.68496)">
	<rect
   style="fill:#241e38;fill-opacity:1;stroke:none;stroke-width:0;stroke-linecap:round;stroke-miterlimit:13.5;stroke-dasharray:none;paint-order:markers stroke fill"
   id="rect19"
   width="607.29657"
   height="78.177124"
   x="-5.6849594"
   y="-5.973659"
   rx="5.3480725" />
	
<g
   id="g5"
   transform="matrix(0.81336148,0,0,0.81336148,43.7825,6.8286974)"><path
     class="st0"
     d="M 97.19,19.97 C 96.87,18.66 96.44,17.38 95.98,16.12 95.48,14.85 92.37,7.06 83.3,0.96 L 82.94,1.5 c 4.16,3.04 7.41,7.26 9.69,11.8 2.2,4.57 3.36,9.67 3.32,14.72 -0.04,10.16 -5.04,20.05 -13,26.13 -3.97,3.04 -8.62,5.17 -13.47,6.17 C 64.6,61.31 59.54,61.19 54.73,59.98 49.94,58.79 45.41,56.55 41.62,53.45 37.8,50.36 32.41,44.34 30.51,35.87 h -4.59 c 1.83,7.72 5.61,13.59 9.23,17.5 -5.3,1.41 -11.03,1.06 -16.08,-0.99 C 13.23,50.06 8.41,45.44 5.74,39.82 3.05,34.21 2.59,27.61 4.43,21.72 c 1.79,-5.91 5.92,-11 11.21,-14.07 5.27,-3.11 11.7,-4.02 17.63,-2.73 2.89,0.61 5.64,1.79 8.11,3.39 1.33,0.87 2.58,1.86 3.71,2.96 1.09,1.06 2.06,2.21 2.93,3.46 3.5,4.93 4.97,11.17 4.19,17.13 -0.61,4.96 -2.86,9.65 -6.23,13.31 -0.51,-0.49 -1.01,-1.01 -1.49,-1.55 -0.15,-0.16 -0.31,-0.33 -0.46,-0.51 -0.16,-0.19 -0.3,-0.4 -0.45,-0.6 -0.24,-0.31 -0.46,-0.64 -0.67,-0.96 -0.09,-0.12 -0.17,-0.24 -0.25,-0.35 -0.87,-1.34 -1.64,-2.74 -2.27,-4.2 -0.89,-2.2 -1.43,-4.53 -1.7,-6.89 -0.18,-2.37 -0.09,-4.76 0.35,-7.09 0.51,-2.32 1.28,-4.58 2.39,-6.68 0.15,-0.27 0.32,-0.54 0.49,-0.81 0.15,-0.25 0.31,-0.49 0.47,-0.74 0.06,-0.1 0.13,-0.2 0.19,-0.31 -1.11,-1.14 -2.36,-2.13 -3.73,-2.96 -0.06,0.1 -0.14,0.2 -0.2,0.3 -0.16,0.24 -0.33,0.46 -0.48,0.71 -0.32,0.51 -0.64,1.03 -0.93,1.56 -1.33,2.51 -2.26,5.22 -2.86,8 -0.53,2.79 -0.65,5.64 -0.41,8.48 0.34,2.81 0.99,5.6 2.08,8.23 0.85,1.96 1.89,3.83 3.11,5.57 0.06,0.09 0.14,0.19 0.21,0.28 0.24,0.33 0.48,0.65 0.73,0.97 0.11,0.15 0.22,0.3 0.34,0.44 0.19,0.22 0.39,0.43 0.58,0.64 1.7,1.9 3.61,3.6 5.71,5.03 2.37,1.56 4.96,2.75 7.66,3.61 2.72,0.81 5.55,1.17 8.38,1.23 4.71,-0.09 9.39,-1.32 13.51,-3.57 4.09,-2.3 7.58,-5.58 10.16,-9.46 2.51,-3.92 4.1,-8.43 4.51,-13.04 C 91.32,25.89 90.58,21.2 88.79,16.95 86.97,12.71 84.09,8.97 80.55,6.07 76.95,3.23 72.69,1.23 68.21,0.39 63.72,-0.41 59.07,-0.14 54.73,1.2 51.49,2.23 48.46,3.87 45.81,5.98 42.38,3.37 38.38,1.51 34.17,0.67 27.18,-0.74 19.68,0.58 13.64,4.3 7.59,7.98 2.98,13.95 1.09,20.75 -0.86,27.51 -0.17,34.96 3,41.19 c 3.12,6.25 8.66,11.2 15.16,13.58 5.97,2.24 12.68,2.31 18.65,0.27 0.74,0.69 1.45,1.29 2.12,1.81 4.38,3.4 9.53,5.77 14.91,6.96 5.38,1.2 11.03,1.19 16.39,-0.06 5.36,-1.24 10.39,-3.74 14.65,-7.16 C 93.42,49.71 98.49,38.87 98.26,28.01 98.22,25.29 97.85,22.6 97.19,19.97 Z M 55.39,3.47 c 4,-1.13 8.26,-1.28 12.31,-0.46 4.05,0.86 7.83,2.76 11.01,5.36 3.11,2.68 5.6,6.07 7.13,9.86 1.49,3.81 2.04,7.94 1.64,11.99 -0.46,4.04 -1.94,7.92 -4.19,11.26 -2.31,3.31 -5.42,6.04 -8.98,7.88 -3.58,1.79 -7.55,2.74 -11.53,2.71 C 60.39,52.01 58.02,51.69 55.73,51.01 53.62,50.32 51.58,49.38 49.7,48.18 53.61,43.84 56.22,38.31 56.93,32.5 57.9,25.37 55.95,17.92 51.75,12.12 50.51,10.38 49.06,8.82 47.48,7.41 49.87,5.65 52.55,4.3 55.39,3.47 Z"
     id="path1" /><g
     id="g18">
		<path
   class="st1"
   d="m 127.81,26.44 -1.54,1.67 -1.5,-1.34 c -0.92,0.51 -1.98,0.79 -3.16,0.79 -3.62,0 -6.06,-2.57 -6.06,-6.41 0,-3.82 2.44,-6.39 6.07,-6.39 3.62,0 6.06,2.57 6.06,6.37 0,1.62 -0.42,3.08 -1.21,4.11 z m -3.4,-3.03 c 0.26,-0.61 0.39,-1.38 0.39,-2.28 0,-2.51 -1.19,-4.04 -3.18,-4.04 -2,0 -3.19,1.52 -3.19,4.06 0,2.57 1.19,4.07 3.21,4.07 0.44,0 0.79,-0.07 1.16,-0.22 l -0.94,-0.83 1.52,-1.71 z"
   id="path2" />
		<path
   class="st1"
   d="m 139.71,15.04 v 8.28 c 0,1.54 -0.4,2.51 -1.32,3.19 -0.94,0.68 -2.18,1.05 -3.58,1.05 -1.41,0 -2.66,-0.37 -3.6,-1.05 -0.92,-0.68 -1.32,-1.65 -1.32,-3.19 v -8.28 h 2.75 v 8.09 c 0,0.83 0.13,1.19 0.5,1.54 0.4,0.35 0.99,0.55 1.67,0.55 0.66,0 1.25,-0.2 1.65,-0.55 0.37,-0.35 0.49,-0.72 0.49,-1.54 v -8.09 z"
   id="path3" />
		<path
   class="st1"
   d="m 144.63,24.82 -0.77,2.46 h -2.99 l 4.28,-12.24 h 3.43 l 3.89,12.24 h -3.12 l -0.66,-2.46 z m 2.16,-7.05 -1.49,4.79 h 2.77 z"
   id="path4" />
		<path
   class="st1"
   d="m 161.33,27.28 -3.47,-6.26 -1.27,-2.39 c 0.04,0.64 0.04,1.1 0.04,1.47 0.02,0.66 0.02,1.38 0.02,2.15 v 5.03 h -2.51 V 15.04 H 157 l 3.38,6.09 c 0.48,0.92 0.79,1.56 1.25,2.48 -0.04,-0.5 -0.04,-0.83 -0.04,-1.19 l -0.02,-0.92 v -0.88 -5.58 h 2.51 v 12.24 z"
   id="path5" />
		<path
   class="st1"
   d="m 172.4,27.28 h -2.75 v -9.89 h -3.71 v -2.35 h 10.17 v 2.35 h -3.71 z"
   id="path6" />
		<path
   class="st1"
   d="m 187.78,15.04 v 8.28 c 0,1.54 -0.4,2.51 -1.32,3.19 -0.94,0.68 -2.18,1.05 -3.58,1.05 -1.41,0 -2.66,-0.37 -3.6,-1.05 -0.92,-0.68 -1.32,-1.65 -1.32,-3.19 v -8.28 h 2.75 v 8.09 c 0,0.83 0.13,1.19 0.5,1.54 0.4,0.35 0.99,0.55 1.67,0.55 0.66,0 1.25,-0.2 1.65,-0.55 0.37,-0.35 0.49,-0.72 0.49,-1.54 v -8.09 z"
   id="path7" />
		<path
   class="st1"
   d="m 195.07,27.28 -1.69,-6.52 c -0.13,-0.55 -0.24,-0.94 -0.31,-1.19 -0.09,-0.39 -0.11,-0.46 -0.22,-0.81 0.04,0.44 0.04,0.75 0.04,0.95 l 0.02,1.17 v 6.39 H 190.4 V 15.04 h 3.87 l 1.56,6.41 c 0.24,0.95 0.44,1.96 0.59,2.77 0.05,-0.24 0.07,-0.37 0.07,-0.39 l 0.2,-0.79 c 0.04,-0.22 0.11,-0.5 0.18,-0.83 0.09,-0.39 0.18,-0.77 0.18,-0.81 l 1.6,-6.37 h 3.83 v 12.24 h -2.51 v -6.39 l 0.02,-1.17 c 0,-0.24 0,-0.51 0.04,-0.95 -0.2,0.73 -0.33,1.23 -0.39,1.39 -0.11,0.33 -0.17,0.57 -0.18,0.59 l -1.67,6.53 h -2.72 z"
   id="path8" />
		<path
   class="st1"
   d="m 222.77,21.26 c 0,3.73 -2.48,6.3 -6.06,6.3 -3.63,0 -6.07,-2.57 -6.07,-6.41 0,-2 0.68,-3.73 1.89,-4.83 1.12,-1.03 2.55,-1.56 4.17,-1.56 3.68,0 6.07,2.56 6.07,6.5 z m -9.25,-0.11 c 0,2.55 1.19,4.07 3.19,4.07 1.96,0 3.18,-1.52 3.18,-4.02 0,-2.59 -1.17,-4.11 -3.19,-4.11 -1.99,0 -3.18,1.53 -3.18,4.06 z"
   id="path9" />
		<path
   class="st1"
   d="m 227.71,27.28 h -2.75 V 15.04 h 4.81 c 1.67,0 2.55,0.24 3.34,0.94 0.84,0.75 1.32,1.87 1.32,3.19 0,1.12 -0.35,2.09 -1.05,2.83 -0.73,0.77 -1.67,1.12 -3.08,1.12 h -2.59 z m 2.16,-6.51 c 1.08,0 1.74,-0.64 1.74,-1.69 0,-1.07 -0.66,-1.69 -1.74,-1.69 h -2.17 v 3.38 z"
   id="path10" />
		<path
   class="st1"
   d="m 242.06,27.28 h -2.75 v -9.89 h -3.71 v -2.35 h 10.17 v 2.35 h -3.71 z"
   id="path11" />
		<path
   class="st1"
   d="m 250.28,27.28 h -2.75 V 15.04 h 2.75 z"
   id="path12" />
		<path
   class="st1"
   d="m 260.86,18.95 c -0.28,-1.17 -1.17,-1.85 -2.48,-1.85 -2.02,0 -3.18,1.49 -3.18,4.06 0,2.55 1.16,4.07 3.1,4.07 1.41,0 2.26,-0.7 2.59,-2.17 h 2.92 c -0.33,2.77 -2.41,4.5 -5.43,4.5 -3.62,0 -5.93,-2.5 -5.93,-6.41 0,-3.93 2.28,-6.39 5.91,-6.39 2.95,0 4.97,1.58 5.3,4.18 h -2.8 z"
   id="path13" />
		<path
   class="st1"
   d="m 272.83,18.87 v -0.2 c 0,-1.03 -0.81,-1.62 -2.2,-1.62 -1.3,0 -2.09,0.48 -2.09,1.25 0,0.51 0.37,0.86 1.12,1.05 l 2.48,0.57 c 1.36,0.33 2.11,0.66 2.7,1.21 0.63,0.57 0.94,1.36 0.94,2.33 0,2.53 -1.94,4.09 -5.12,4.09 -3.3,0 -5.21,-1.58 -5.23,-4.31 h 2.75 c 0.06,1.4 0.84,2.02 2.52,2.02 1.41,0 2.28,-0.51 2.28,-1.38 0,-0.61 -0.44,-1.03 -1.32,-1.25 l -2.22,-0.55 c -1.3,-0.31 -2.11,-0.66 -2.66,-1.14 -0.62,-0.51 -0.97,-1.41 -0.97,-2.4 0,-2.37 1.82,-3.78 4.92,-3.78 1.98,0 3.38,0.59 4.17,1.74 0.4,0.61 0.61,1.27 0.72,2.37 z"
   id="path14" />
		<path
   class="st1"
   d="m 122.14,33.19 v 8.68 c 0,1.43 -0.2,2.17 -0.79,2.79 -0.62,0.68 -1.6,1.05 -2.77,1.05 -1.65,0 -2.84,-0.72 -3.32,-2.02 -0.18,-0.51 -0.24,-1.08 -0.26,-2.28 h 1.74 c 0.02,0.88 0.05,1.28 0.18,1.67 0.26,0.72 0.84,1.1 1.65,1.1 0.59,0 1.08,-0.22 1.38,-0.61 0.33,-0.4 0.44,-0.88 0.44,-1.74 v -8.64 z"
   id="path15" />
		<path
   class="st1"
   d="m 133.9,34.71 h -6.85 v 3.69 h 6.26 v 1.43 h -6.26 v 4.07 h 7.08 v 1.52 H 125.3 V 33.19 h 8.59 v 1.52 z"
   id="path16" />
		<path
   class="st1"
   d="m 144.5,45.43 -5.01,-7.73 c -0.61,-0.95 -0.97,-1.56 -1.27,-2.11 0.04,0.55 0.05,1.71 0.05,2.31 v 7.52 h -1.65 V 33.19 h 1.78 l 4.81,7.45 c 0.46,0.7 1.08,1.8 1.45,2.53 -0.04,-0.68 -0.05,-1.43 -0.05,-2.29 v -7.62 h 1.65 v 12.17 z"
   id="path17" />
		<path
   class="st1"
   d="m 151.36,41.76 -1.25,3.67 h -1.85 l 4.5,-12.24 h 1.87 l 4.52,12.24 h -1.91 l -1.27,-3.67 z m 2.31,-6.68 -1.8,5.21 h 3.6 z"
   id="path18" />
	</g></g></g>
</svg>
