<?xml version="1.0" encoding="UTF-8" standalone="no"?>
<!-- Created with Inkscape (http://www.inkscape.org/) -->

<svg
   width="72.672218mm"
   height="57.29464mm"
   viewBox="0 0 72.672217 57.29464"
   version="1.1"
   id="svg1"
   inkscape:version="1.4 (e7c3feb100, 2024-10-09)"
   sodipodi:docname="HPKE.svg"
   xmlns:inkscape="http://www.inkscape.org/namespaces/inkscape"
   xmlns:sodipodi="http://sodipodi.sourceforge.net/DTD/sodipodi-0.dtd"
   xmlns="http://www.w3.org/2000/svg"
   xmlns:svg="http://www.w3.org/2000/svg">
  <sodipodi:namedview
     id="namedview1"
     pagecolor="#ffffff"
     bordercolor="#000000"
     borderopacity="0.25"
     inkscape:showpageshadow="2"
     inkscape:pageopacity="0.0"
     inkscape:pagecheckerboard="0"
     inkscape:deskcolor="#d1d1d1"
     inkscape:document-units="mm"
     inkscape:zoom="1.5344623"
     inkscape:cx="171.0697"
     inkscape:cy="140.44008"
     inkscape:window-width="1096"
     inkscape:window-height="945"
     inkscape:window-x="0"
     inkscape:window-y="0"
     inkscape:window-maximized="0"
     inkscape:current-layer="layer1" />
  <defs
     id="defs1" />
  <g
     inkscape:label="Layer 1"
     inkscape:groupmode="layer"
     id="layer1"
     transform="translate(25.925638,-76.817372)">
    <path
       id="path240"
       d="M -24.772055,89.097566 H 39.115292 V 77.971626 H -24.772055 Z"
       style="fill:#9c929d;fill-opacity:1;fill-rule:evenodd;stroke:none;stroke-width:0.352778" />
    <path
       id="path241"
       d="m 40.269581,77.970955 v 54.987465 c 0,0.635 -0.518583,1.15359 -1.153583,1.15359 h -63.888053 c -0.638527,0 -1.153583,-0.51859 -1.153583,-1.15359 V 77.970955 c 0,-0.638527 0.515056,-1.153583 1.153583,-1.153583 h 63.888053 c 0.635,0 1.153583,0.515056 1.153583,1.153583 z M -24.772055,132.95842 H 39.115292 V 77.972014 h -63.887347 z"
       style="fill:#9c929d;fill-opacity:1;fill-rule:evenodd;stroke:none;stroke-width:0.352778" />
    <path
       id="path242"
       d="M 3.2000751,85.697279 H 2.5468848 V 83.423516 H 0.06641624 v 2.273763 H -0.5826397 v -4.919596 h 0.64905594 v 2.116666 H 2.5468848 v -2.116666 h 0.6531903 z m 1.8004066,-1.926497 v 1.926497 H 4.351426 v -4.919596 h 1.8148761 c 0.5374347,0 0.9591145,0.138493 1.2650388,0.413411 0.3059247,0.272852 0.458887,0.636654 0.458887,1.091406 0,0.477491 -0.1508954,0.845427 -0.4506186,1.103809 -0.2976562,0.256315 -0.7255372,0.384473 -1.2815756,0.384473 z m 0,-0.529167 h 1.1658204 c 0.3472656,0 0.6128822,-0.08061 0.7978842,-0.243913 0.1839679,-0.165364 0.2769855,-0.402042 0.2769855,-0.711067 0,-0.291455 -0.093018,-0.526066 -0.2769855,-0.7028 -0.185002,-0.1757 -0.4382163,-0.26665 -0.7606771,-0.272851 H 5.0004817 Z m 4.9712726,0.169499 -0.6035806,0.624251 v 1.661914 h -0.649056 v -4.919596 h 0.649056 v 2.430859 L 11.55512,80.777683 h 0.785482 l -1.9389,2.17041 2.087728,2.749186 h -0.777214 z m 5.8694087,0.0124 H 13.70796 v 1.744596 h 2.476335 v 0.529167 h -3.125391 v -4.919596 h 3.092318 v 0.533301 H 13.70796 v 1.583365 h 2.133203 z m 0,0"
       style="fill:#071017;fill-opacity:1;fill-rule:nonzero;stroke:none;stroke-width:0.352778"
       aria-label="HPKE" />
    <path
       id="path243"
       d="M -17.049749,102.97937 H 25.658584 V 93.072842 H -17.049749 Z"
       style="fill:#f8a523;fill-opacity:1;fill-rule:evenodd;stroke:none;stroke-width:0.352778" />
    <path
       id="path244"
       d="m -17.049749,116.11329 h 42.708333 v -9.90653 h -42.708333 z"
       style="fill:#3868bb;fill-opacity:1;fill-rule:evenodd;stroke:none;stroke-width:0.352778" />
    <path
       id="path245"
       d="m -17.049749,129.2472 h 42.708333 v -9.90653 h -42.708333 z"
       style="fill:#ec008b;fill-opacity:1;fill-rule:evenodd;stroke:none;stroke-width:0.352778" />
    <path
       id="path246"
       d="m -1.0312,98.442744 -0.6035807,0.624251 v 1.661915 h -0.6490559 v -4.919597 h 0.6490559 v 2.43086 l 2.18694651,-2.43086 H 1.3376476 l -1.93889972,2.17041 2.08772782,2.749187 H 0.70926223 Z m 5.8694088,0.0124 H 2.7050057 v 1.744596 h 2.4763348 v 0.52917 H 2.0559501 v -4.919599 h 3.0923175 v 0.533301 H 2.7050057 v 1.583366 h 2.1332031 z m 1.9916096,-2.645833 1.6081706,4.014225 1.608171,-4.014225 h 0.843359 v 4.919599 h -0.649056 v -1.914098 l 0.05788,-2.071191 -1.6123041,3.985289 h -0.500228 l -1.6081705,-3.972886 0.062012,2.058788 v 1.914098 h -0.649056 v -4.919599 z m 0,0"
       style="fill:#071017;fill-opacity:1;fill-rule:nonzero;stroke:none;stroke-width:0.352778"
       aria-label="KEM" />
    <path
       id="path247"
       d="m -0.22296293,111.57683 -0.6035807,0.62425 v 1.66191 H -1.4755996 v -4.91959 h 0.64905597 v 2.43086 L 1.3604029,108.9434 h 0.7854816 l -1.93889954,2.17041 2.08772764,2.74918 H 1.5174991 Z m 3.08714983,2.28616 v -4.91959 h 1.3890625 c 0.4268473,0 0.8040852,0.0951 1.1327475,0.28525 0.3307291,0.1881 0.5849771,0.45682 0.7648109,0.80615 0.1788004,0.35037 0.2697511,0.75138 0.2728517,1.20303 v 0.31419 c 0,0.46303 -0.089917,0.87024 -0.2687175,1.21957 -0.1798338,0.35036 -0.4361491,0.61908 -0.7689451,0.80615 -0.3307292,0.185 -0.7172688,0.28009 -1.1575521,0.28525 z M 3.513243,109.4767 v 3.85713 h 0.6821289 c 0.5012612,0 0.8909015,-0.15503 1.1699543,-0.46716 0.2780192,-0.31109 0.4175456,-0.75344 0.4175456,-1.32705 v -0.28939 c 0,-0.55913 -0.1322916,-0.99322 -0.3968749,-1.30224 C 5.1234805,109.64 4.7514104,109.4829 4.2697858,109.4767 Z m 6.602181,2.21175 H 8.0525004 v 2.17454 H 7.4034447 v -4.91959 h 3.0468423 v 0.5333 H 8.0525004 v 1.68258 h 2.0629236 z m 0,0"
       style="fill:#071017;fill-opacity:1;fill-rule:nonzero;stroke:none;stroke-width:0.352778"
       aria-label="KDF" />
    <path
       id="path248"
       d="m -1.1583152,125.71033 h -2.058789 l -0.4630208,1.28571 h -0.6697265 l 1.8768879,-4.9196 h 0.5705078 l 1.88102213,4.9196 h -0.6655925 z m -1.8644856,-0.5333 h 1.6743163 l -0.8392252,-2.29857 z M 3.423317,124.72227 H 1.290114 v 1.7446 h 2.4763344 v 0.52917 H 0.64105792 v -4.9196 H 3.7333755 v 0.5333 H 1.290114 v 1.58337 h 2.133203 z m 3.8684974,0.98806 H 5.2330256 l -0.4630208,1.28571 H 4.1002781 l 1.8768881,-4.9196 h 0.5705076 l 1.8810223,4.9196 H 7.7631036 Z m -1.8644855,-0.5333 h 1.6743164 l -0.8392251,-2.29857 z m 3.6638588,1.81901 v -4.9196 H 10.48025 c 0.426847,0 0.804085,0.0951 1.132748,0.28525 0.330729,0.18811 0.584977,0.45682 0.764811,0.80616 0.1788,0.35036 0.269751,0.75137 0.272851,1.20302 v 0.3142 c 0,0.46302 -0.08992,0.87023 -0.268717,1.21956 -0.179834,0.35037 -0.436149,0.61908 -0.768945,0.80615 -0.33073,0.185 -0.717269,0.28009 -1.157552,0.28526 z m 0.649056,-4.3863 v 3.85713 h 0.6821293 c 0.501261,0 0.890901,-0.15503 1.169954,-0.46715 0.278019,-0.3111 0.417546,-0.75345 0.417546,-1.32706 v -0.28938 c 0,-0.55914 -0.132292,-0.99322 -0.396875,-1.30225 -0.262517,-0.30799 -0.634587,-0.46509 -1.116211,-0.47129 z m 0,0"
       style="fill:#071017;fill-opacity:1;fill-rule:nonzero;stroke:none;stroke-width:0.352778"
       aria-label="AEAD" />
    <path
       id="path249"
       d="m 46.746581,115.90515 c 0,-1.80622 -1.467556,-3.27025 -3.27025,-3.27025 h -8.720666 c -1.806223,0 -3.27025,1.46403 -3.27025,3.27025 v 8.72066 c 0,1.8027 1.464027,3.27025 3.27025,3.27025 h 8.720666 c 1.802694,0 3.27025,-1.46755 3.27025,-3.27025 z"
       style="fill:#c7c5cf;fill-opacity:1;fill-rule:evenodd;stroke:none;stroke-width:0.352778" />
    <path
       id="path250"
       d="m 35.274248,120.38543 v -3.81 c 0,-0.28575 0.144639,-0.55034 0.381,-0.70909 l 2.9845,-1.98966 c 0.289277,-0.1905 0.663222,-0.1905 0.948972,0 l 2.9845,1.98966 c 0.236361,0.15875 0.381,0.42334 0.381,0.70909 v 3.81 m -7.679972,0 c 0,0.46566 0.388055,0.85372 0.853722,0.85372 h 5.972528 c 0.469194,0 0.853722,-0.38806 0.853722,-0.85372 m -7.679972,0 2.882194,-1.91912 m 4.797778,1.91912 -2.878667,-1.91912 m -4.801305,-1.91911 2.882194,1.91911 m 4.797778,-1.91911 -2.878667,1.91911 m 0,0 -0.486833,0.32103 c -0.28575,0.19403 -0.659695,0.19403 -0.948972,0 l -0.483306,-0.32103"
       style="fill:none;stroke:#3b3649;stroke-width:0.853062;stroke-linecap:butt;stroke-linejoin:miter;stroke-miterlimit:10;stroke-dasharray:none;stroke-opacity:1" />
    <path
       id="path251"
       d="m 33.397714,124.54039 c 0,-0.27802 0.05374,-0.52917 0.161231,-0.75241 0.109554,-0.22324 0.262516,-0.39481 0.458887,-0.51677 0.195336,-0.12092 0.418579,-0.1819 0.669726,-0.1819 0.388607,0 0.700732,0.1354 0.938444,0.40515 0.239779,0.26768 0.359668,0.62321 0.359668,1.0666 v 0.0372 c 0,0.27596 -0.05374,0.524 -0.16123,0.74415 -0.10542,0.22117 -0.256316,0.39274 -0.454753,0.51676 -0.196371,0.12196 -0.42168,0.1819 -0.677995,0.1819 -0.38654,0 -0.698665,-0.13332 -0.938444,-0.40101 -0.237711,-0.26975 -0.355534,-0.62528 -0.355534,-1.0666 z m 0.487826,0.0579 c 0,0.3142 0.07235,0.56845 0.219108,0.76068 0.145727,0.19017 0.341064,0.28526 0.587044,0.28526 0.248047,0 0.443384,-0.0961 0.587044,-0.28939 0.145728,-0.19534 0.219108,-0.46716 0.219108,-0.81442 0,-0.3111 -0.07441,-0.56328 -0.223242,-0.75655 -0.146761,-0.19533 -0.342098,-0.29352 -0.587044,-0.29352 -0.239779,0 -0.434082,0.0971 -0.58291,0.28939 -0.146761,0.19017 -0.219108,0.46302 -0.219108,0.81855 z m 5.112866,0 c 0,0.43305 -0.09922,0.78135 -0.297656,1.04594 -0.198438,0.26458 -0.466122,0.39687 -0.802019,0.39687 -0.347265,0 -0.619083,-0.10955 -0.81442,-0.33073 v 1.36839 h -0.487826 v -3.93567 h 0.442351 l 0.0248,0.31419 c 0.198438,-0.24495 0.473356,-0.36794 0.826823,-0.36794 0.341064,0 0.611849,0.13023 0.810287,0.38861 0.198437,0.25631 0.297656,0.61495 0.297656,1.07487 z m -0.487826,-0.0579 c 0,-0.31936 -0.06925,-0.57154 -0.206705,-0.75655 -0.135392,-0.18706 -0.321428,-0.28112 -0.558106,-0.28112 -0.295589,0 -0.515731,0.13126 -0.661458,0.39275 v 1.36012 c 0.142627,0.25941 0.364835,0.38861 0.665592,0.38861 0.233578,0 0.41858,-0.092 0.553972,-0.27699 0.137459,-0.18397 0.206705,-0.45992 0.206705,-0.82682 z m 2.284098,1.50068 c -0.383439,0 -0.696598,-0.12609 -0.938444,-0.38034 -0.242879,-0.25321 -0.363802,-0.59221 -0.363802,-1.01699 v -0.0868 c 0,-0.28318 0.05374,-0.53536 0.161231,-0.75654 0.107487,-0.22324 0.257349,-0.39687 0.450618,-0.5209 0.195337,-0.12609 0.406177,-0.19017 0.63252,-0.19017 0.368969,0 0.655257,0.12299 0.859896,0.36794 0.206705,0.24288 0.310058,0.59118 0.310058,1.04593 v 0.20257 h -1.926497 c 0.0052,0.27905 0.08682,0.50436 0.243913,0.678 0.157096,0.17363 0.356567,0.26045 0.599446,0.26045 0.170532,0 0.315226,-0.0341 0.434082,-0.10336 0.120923,-0.0713 0.225309,-0.16536 0.314193,-0.28112 l 0.297656,0.23151 c -0.239778,0.36691 -0.598413,0.54984 -1.07487,0.54984 z m -0.05788,-2.55075 c -0.196371,0 -0.361735,0.0724 -0.496094,0.21498 -0.132291,0.14366 -0.21394,0.34313 -0.243912,0.59944 h 1.422135 v -0.0372 c -0.01447,-0.24495 -0.08062,-0.43512 -0.198438,-0.57051 -0.118855,-0.13746 -0.280086,-0.20671 -0.483691,-0.20671 z m 2.19108,-0.34726 0.01653,0.35966 c 0.217041,-0.27491 0.501262,-0.41341 0.851628,-0.41341 0.60048,0 0.903304,0.339 0.909505,1.017 v 1.88102 h -0.487824 v -1.88102 c 0,-0.20671 -0.04754,-0.35761 -0.14056,-0.45476 -0.09095,-0.0992 -0.234611,-0.14883 -0.429948,-0.14883 -0.157096,0 -0.295589,0.0434 -0.413411,0.12816 -0.118856,0.0827 -0.21084,0.19327 -0.276986,0.33073 v 2.02572 h -0.487825 v -2.84427 z m 0,0"
       style="fill:#071017;fill-opacity:1;fill-rule:nonzero;stroke:none;stroke-width:0.352778"
       aria-label="open" />
    <path
       id="path252"
       d="m 46.746581,96.343621 c 0,-1.806222 -1.467556,-3.27025 -3.27025,-3.27025 h -8.720666 c -1.806223,0 -3.27025,1.464028 -3.27025,3.27025 v 8.720669 c 0,1.80269 1.464027,3.27025 3.27025,3.27025 h 8.720666 c 1.802694,0 3.27025,-1.46756 3.27025,-3.27025 z"
       style="fill:#c7c5cf;fill-opacity:1;fill-rule:evenodd;stroke:none;stroke-width:0.352778" />
    <path
       id="path253"
       d="m 35.274248,96.886899 3.3655,2.243666 c 0.289277,0.1905 0.663222,0.1905 0.948972,0 l 3.3655,-2.243666 m -6.82625,4.691941 h 5.972528 c 0.469194,0 0.853722,-0.38452 0.853722,-0.85372 v -4.265082 c 0,-0.469195 -0.384528,-0.853722 -0.853722,-0.853722 H 36.12797 c -0.465667,0 -0.853722,0.384527 -0.853722,0.853722 v 4.265082 c 0,0.4692 0.388055,0.85372 0.853722,0.85372 z"
       style="fill:none;stroke:#3b3649;stroke-width:0.853062;stroke-linecap:butt;stroke-linejoin:miter;stroke-miterlimit:10;stroke-dasharray:none;stroke-opacity:1" />
    <path
       id="path254"
       d="m 36.209946,105.57512 c 0,-0.13229 -0.04961,-0.23358 -0.148828,-0.30592 -0.09922,-0.0744 -0.272851,-0.13746 -0.520898,-0.19017 -0.24598,-0.0517 -0.441317,-0.11369 -0.587044,-0.18604 -0.143661,-0.0744 -0.250114,-0.16226 -0.318327,-0.26458 -0.06925,-0.10129 -0.103353,-0.22324 -0.103353,-0.3638 0,-0.23358 0.09715,-0.43098 0.293522,-0.59118 0.198438,-0.16226 0.450619,-0.24391 0.756543,-0.24391 0.322461,0 0.583944,0.0847 0.785482,0.25218 0.200504,0.16536 0.30179,0.37827 0.30179,0.63665 h -0.487825 c 0,-0.13229 -0.05684,-0.24598 -0.169499,-0.34313 -0.113688,-0.0961 -0.256315,-0.14469 -0.429948,-0.14469 -0.176733,0 -0.314193,0.0393 -0.413411,0.11575 -0.09922,0.0775 -0.148829,0.17777 -0.148829,0.30179 0,0.11886 0.04548,0.20877 0.136426,0.26872 0.09302,0.0579 0.261483,0.11472 0.504362,0.1695 0.241846,0.0527 0.438216,0.11782 0.587044,0.1943 0.150896,0.0744 0.262517,0.16537 0.334864,0.27285 0.07441,0.10542 0.111621,0.23358 0.111621,0.38447 0,0.25425 -0.10232,0.45786 -0.305925,0.61185 -0.201538,0.15503 -0.465088,0.23151 -0.789616,0.23151 -0.229443,0 -0.432014,-0.0403 -0.607714,-0.11989 -0.173633,-0.0827 -0.310059,-0.19533 -0.409278,-0.33899 -0.09922,-0.14573 -0.148828,-0.30283 -0.148828,-0.47129 h 0.487826 c 0.0083,0.1633 0.07235,0.29249 0.194303,0.38861 0.124023,0.0971 0.285254,0.14469 0.483691,0.14469 0.183969,0 0.331763,-0.0372 0.442351,-0.11162 0.112654,-0.0744 0.169498,-0.17363 0.169498,-0.29766 z m 2.296501,0.80615 c -0.383439,0 -0.696598,-0.12609 -0.938444,-0.38033 -0.242879,-0.25322 -0.363802,-0.59222 -0.363802,-1.017 v -0.0868 c 0,-0.28319 0.05374,-0.53537 0.16123,-0.75655 0.107487,-0.22324 0.257349,-0.39687 0.450619,-0.52089 0.195337,-0.12609 0.406176,-0.19017 0.632519,-0.19017 0.36897,0 0.655258,0.12299 0.859896,0.36793 0.206706,0.24288 0.310059,0.59118 0.310059,1.04593 v 0.20258 h -1.926498 c 0.0052,0.27905 0.08682,0.50436 0.243913,0.67799 0.157096,0.17363 0.356568,0.26045 0.599447,0.26045 0.170532,0 0.315226,-0.0341 0.434082,-0.10335 0.120923,-0.0713 0.225309,-0.16537 0.314192,-0.28112 l 0.297657,0.23151 c -0.239779,0.3669 -0.598413,0.54983 -1.07487,0.54983 z m -0.05788,-2.55074 c -0.19637,0 -0.361735,0.0723 -0.496093,0.21497 -0.132292,0.14366 -0.213941,0.34313 -0.243913,0.59945 h 1.422135 v -0.0372 c -0.01447,-0.24495 -0.08062,-0.43512 -0.198437,-0.57051 -0.118856,-0.13746 -0.280087,-0.2067 -0.483692,-0.2067 z m 3.489193,2.497 c -0.0279,-0.0548 -0.05168,-0.154 -0.07028,-0.29766 -0.226343,0.23462 -0.496094,0.3514 -0.810287,0.3514 -0.279052,0 -0.508496,-0.0785 -0.690397,-0.23564 -0.179834,-0.15916 -0.268717,-0.36174 -0.268717,-0.60772 0,-0.29455 0.112655,-0.52296 0.338997,-0.68626 0.225309,-0.16536 0.542603,-0.24804 0.950847,-0.24804 h 0.471289 v -0.22325 c 0,-0.17053 -0.05168,-0.30592 -0.152962,-0.40514 -0.10232,-0.10129 -0.251148,-0.15296 -0.446485,-0.15296 -0.173633,0 -0.320394,0.0444 -0.438216,0.13229 -0.115755,0.0889 -0.173633,0.1943 -0.173633,0.31833 h -0.491959 c 0,-0.14263 0.04961,-0.28112 0.148828,-0.41342 0.101285,-0.13229 0.239778,-0.23667 0.413411,-0.31419 0.173633,-0.0765 0.363802,-0.11575 0.570508,-0.11575 0.327628,0 0.583944,0.0827 0.768945,0.24804 0.183968,0.1633 0.28112,0.38861 0.289388,0.678 v 1.30638 c 0,0.26251 0.03307,0.47025 0.09922,0.62425 v 0.0413 z m -0.806152,-0.37207 c 0.150895,0 0.294555,-0.0382 0.429948,-0.11575 0.137459,-0.0796 0.236677,-0.18294 0.297656,-0.31006 v -0.58291 h -0.380339 c -0.595312,0 -0.892968,0.1757 -0.892968,0.52503 0,0.15193 0.05064,0.27078 0.152962,0.35553 0.101286,0.0858 0.232544,0.12816 0.392741,0.12816 z m 2.506306,0.37207 h -0.487825 v -4.03903 h 0.487825 z m 0,0"
       style="fill:#071017;fill-opacity:1;fill-rule:nonzero;stroke:none;stroke-width:0.352778"
       aria-label="seal" />
  </g>
</svg>
